<svg width="12" height="12" viewBox="0 0 12 12" fill="none" xmlns="http://www.w3.org/2000/svg">
<path fill-rule="evenodd" clip-rule="evenodd" d="M9.68721 10.6091C9.94175 10.8636 10.3544 10.8636 10.609 10.6091C10.8636 10.3546 10.8636 9.9418 10.609 9.68726L6.92178 5.99999L10.609 2.31274C10.8636 2.05819 10.8636 1.64548 10.609 1.39093C10.3544 1.13637 9.94175 1.13637 9.68721 1.39093L5.99994 5.07816L2.31268 1.39093C2.05813 1.13638 1.64542 1.13638 1.39087 1.39093C1.13631 1.64549 1.13631 2.0582 1.39087 2.31276L5.0781 5.99999L1.39087 9.68726C1.13632 9.9418 1.13632 10.3545 1.39087 10.6091C1.64543 10.8636 2.05813 10.8636 2.31269 10.6091L5.99994 6.92183L9.68721 10.6091Z" fill="#4B5563"/>
</svg>
