<svg width="28" height="29" viewBox="0 0 28 29" fill="none" xmlns="http://www.w3.org/2000/svg">
<path d="M13.9548 9.35631C16.5245 9.35631 18.6074 11.4507 18.6074 14.0345C18.6074 16.6183 16.5245 18.7126 13.9548 18.7126C11.3851 18.7126 9.30224 16.6183 9.30224 14.0345C9.30519 11.4507 11.3881 9.35631 13.9548 9.35631ZM13.9548 9.35631C16.5245 9.35631 18.6074 7.26197 18.6074 4.67816C18.6074 2.09434 16.5245 0 13.9548 0C11.3851 0 9.30224 2.09434 9.30224 4.67816C9.30519 7.26197 11.3881 9.35631 13.9548 9.35631ZM27.9126 4.67816C27.9126 2.09434 25.8297 0 23.26 0C20.6903 0 18.6074 2.09434 18.6074 4.67816C18.6074 7.26197 20.6903 9.35631 23.26 9.35631C25.8297 9.35631 27.9126 7.26197 27.9126 4.67816ZM4.6526 9.35631C2.0829 9.35631 0 11.4507 0 14.0345C0 16.6183 2.0829 18.7126 4.6526 18.7126C7.22229 18.7126 9.30519 16.6183 9.30519 14.0345C9.30519 11.4507 7.22229 9.35631 4.6526 9.35631ZM13.9548 28.066C16.5245 28.066 18.6074 25.9716 18.6074 23.3878C18.6074 20.804 16.5245 18.7097 13.9548 18.7097C11.3851 18.7097 9.30224 20.804 9.30224 23.3878C9.30519 25.9716 11.3881 28.066 13.9548 28.066ZM27.9126 23.3878C27.9126 20.804 25.8297 18.7097 23.26 18.7097C20.6903 18.7097 18.6074 20.804 18.6074 23.3878C18.6074 25.9716 20.6903 28.066 23.26 28.066C25.8297 28.066 27.9126 25.9716 27.9126 23.3878Z" fill="#FF6600"/>
</svg>
